<?xml version="1.0" encoding="utf-8"?>
<!-- Generator: Adobe Illustrator 21.1.0, SVG Export Plug-In . SVG Version: 6.00 Build 0)  -->
<svg version="1.1" id="Layer_1" xmlns="http://www.w3.org/2000/svg" xmlns:xlink="http://www.w3.org/1999/xlink" x="0px" y="0px"
	 viewBox="0 0 673.1 441.9" style="enable-background:new 0 0 673.1 441.9;" xml:space="preserve">
<style type="text/css">
	.st0{fill:#58AE33;}
	.st1{fill:#034E40;}
	.st2{fill:#FDEA70;}
	.st3{fill:#E52621;}
	.st4{fill:#29A1DC;}
	.st5{fill:#E74134;}
	.st6{fill:#2078B5;}
	.st7{fill:#FFFFFF;}
	.st8{fill:#F0E52A;}
	.st9{fill:#E52921;}
</style>
<rect class="st6" width="673.1" height="441.9"/>
<g>
	<path class="st7" d="M556.2,328.8c-11.6-1.5-22.1,1-31,9.1c-1.9,1.7-4.6,2.5-8,4.3c0.3-2.5,0.3-3,0.5-3.5
		c4.3-12.3,8.5-24.5,12.9-36.7c0.2-0.6,0.7-1.3,1.2-1.7c7-6.8,7.3-9.7,1.3-18c2.5-1.1,4.9-2.1,7.3-3.3c8-3.8,12-10.5,12.1-19
		c0.1-8.2-3.7-14.6-11.9-17.5c-7.1-2.4-14.4-4.6-21.3-6.8c2.3-1.8,4.7-3.8,7.1-5.7c0.4-1.1,0.4-1.1,0.4-1.1s4.3-7.2,4.1-10.8
		c1.7-2.7,3-5.8,3.6-9.6c0.2-1.2,1.9-2.2,2.9-3.2c8.1-7.6,13.1-16.1,9.7-27.7c-0.4-1.5,0-3.3,0.5-4.9c8.9-26.9,6.6-52.9-5.9-78.1
		c-11.8-23.7-30.5-41.4-52.3-55.5c-13.5-8.7-27.9-16-44.8-15.8c-17.5,0.3-34.1,4.2-50.2,10.9c-10.4,4.3-20.2,9.5-27.8,18.1
		c-6.3,7.1-9.8,14.9-6.3,24.4c3.3,9.1,10.6,12.9,19.6,14.1c8.4,1.1,16.9,1.8,25.3,3.1c1.6,0.2,3.8,2.3,4.2,3.9
		c0.9,4.2-0.3,7.7-5.1,9.3c-7.7,2.5-15.4,5.1-22.9,8.2c-6.7,2.8-9.8,9.2-11.2,15.5c-0.5,2.3,4.7,5.8,7.3,8.8c0.2,0.3,0.3,0.7,0.5,1
		c-2.7,1.6-6.2,2.7-8,5.1c-3.3,4.3-6.7,9.1-8.2,14.2c-1,3.4-1.9,5.6-4.8,7.4c-6.4,3.9-11.7,8.7-14.1,16.4
		c-5.7,18,10.8,34.9,25.8,39.1l3.9,3.9c-0.4-0.2-0.8-0.4-1.2-0.6c0,0,0,0,0,0c1.5,0.8,2.9,1.9,4.2,3.1c0.5,0.3,1,0.7,1.5,1.2
		c0.6,0.6,1.2,1.3,1.8,1.9c1.5,1.4,3.1,2.6,4.7,3.8c2.4,1.9,5.3,3.6,8.3,4.2c0.5,0.1,1,0.3,1.4,0.5c1.8,0.3,3.5,1.1,5.2,1.6
		c2.3,0.3,4.6,0.5,6.6,0.9c-2.5,2.7-5.2,5.8-8,8.8c-5.6,6.1-5.4,15,0.5,20.8c5,5,11.3,6.6,17.9,7.6c2.9,0.4,5.4,1.1,5.5,5
		c0.4,8.6,1.3,17.2,2,26.2c-9.8,1.2-19.9,2.4-24.2,11.9c-8.1-4-15.1-8.8-22.8-11c-18.2-5.1-35.6,3.6-40.9,19.4
		c-3.3,10-0.7,19.6,3.1,28.7c9.7,23.3,27.1,39.6,49.5,50.2c9,4.3,19.3,6.7,29.3,7.6c9.7,0.9,18.7-3.4,24.3-12
		c5.5-8.6,2.9-17.1-2.1-25.1c-0.6-1-1.1-2-1.8-2.9c-3.6-4.8-6.7-9.6-5.3-16.1c1.1-5.2-0.1-12.4,5.6-14.5c11-4.1,22.3-8.4,35.3-6
		c-4,8.9-8.7,17.9-0.1,26.8c-2.8,0.9-4.8,1.5-6.7,2.2c-8.7,3.5-14.9,9.4-15.9,19c-1.1,10,3.9,17.4,11.9,23c4.1,2.9,8.5,4.9,13.2,6.2
		c25-0.7,50.4-9,72.7-20.2c1.3-0.6,2.6-1,3.8-1.3c0.4-0.3,0.9-0.6,1.4-0.9c1-0.9,2.2-1.6,3.3-2.2c0.8-0.8,1.6-1.5,2.4-2.3
		c10-10.2,17.4-21.8,17.6-37C576.6,341.3,568.5,330.4,556.2,328.8z"/>
	<path class="st7" d="M342.9,242.7c-1-0.6-2.3-2-2.2-3c0.6-8.2-4.9-11.9-11-14.8c-6.6-3.2-13.6-5.7-21.8-9c2.2-1.8,4-3.7,6.1-5
		c5.4-3.3,6.9-9.1,3.8-14.7c-7.6-13.3-22.2-11.1-32-4.4c-0.5,0.3-0.9,0.9-1.2,1.5c-1.1,2.5-1,4.6,0.1,7.5c1.6,4.2,1.4,9.1,2,13.6
		c-3,0.3-6,0.6-9,1c-1.7,0.2-3.5,0.4-5,1.2c-4.1,2.1-5,5.4-3.4,11.6c1.7,6.7,1.2,7.6-5.7,8.7c-6.4,1-12.8,1.9-19.2,2.6
		c-5.3,0.6-10.6,0.8-16,1.2c2-2.2,4.2-3,6.2-4.2c8.8-5.3,19.3-8.1,25-17.8c0.6-1,2.2-1.6,3.5-2.1c10.2-3.8,14.5-13.4,10.7-23.7
		c-0.7-1.9-1-4.5-0.3-6.2c4.9-11.9,0.5-23.2-11.2-28.3c-1.2-0.5-2.4-2.7-2.3-4.1c0.4-6.2-2-10.9-7.9-12.9c-4.4-1.5-9.2-2.1-13.8-3
		c-2.6-0.5-5.9-0.2-7.6-1.7c-5.1-4.4-2.9-11.7,3.8-13.2c11.9-2.6,22.6-7.3,30.6-16.9c6.5-7.8,4.7-19.6-4.2-24.4
		c-5.5-3-11.5-5.3-17.6-6.9c-14.9-3.8-30.1-5.2-45.4-4.3c-12.6,0.7-24.8,3.2-35.8,8.8l-0.1,0l-0.1,0.1c-3.5,1.8-6.8,3.9-10.1,6.3
		c-19.6,15-36.1,32.7-46.4,55.7c-7.1,15.8-8.5,32.3-6.3,49c1.4,10.9,4.6,21.6,10.7,31c0.7,1.1,0.8,2.7,0.9,4
		c0.5,6.9,4.1,12.1,9.9,15.2c9.7,5.2,20.6,6.8,31.2,5.1c10.1-1.7,18.9,2.6,28.5,2.6c-0.2,1.1-0.1,1.5-0.3,1.7
		c-11.6,14.3-23.3,28.5-34.8,42.9c-3.8,4.8-9.1,6.4-14.6,8.5c-8,3.1-15.9,6.8-23.4,11c-7.1,4-9.2,10.4-6.9,18.2
		c0.9,3,0.8,5.1-1.5,7.5c-2.9,3-3,6.8-1.3,10.6c1.6,3.4,3.9,5.1,7.8,4.6c0.9-0.1,2,1.1,3,1.7c1.3,0.9,2.4,2.2,3.8,2.6
		c13,4.2,25.9,6.5,36.9-4.7c0.4-0.5,1.2-0.6,0.8-0.4c2.4,4.5,4.5,8.6,7.2,13.7c-1.3,0.7-3.4,2.3-5.7,2.7c-2.6,0.5-5.4,0.1-8-0.3
		c-12.8-2.4-23.3,2.2-32.5,10.4c-3.7,3.3-6.2,7.8-5.5,13.1c0.5,4.2,1.3,8.3,2.1,12.5c2.2,0.8,4.5,1.7,7,2.6c8.2,2.8,17,3.5,25.5,5
		c16.8,3.1,33.3,3.5,50.3,3.7c14.3,0.2,28.5,0,42.6-0.3c3.9-0.6,7.8-1.3,11.8-2c7-1.2,14-1.8,21.1-2.3c7.5-5.1,10.7-9.8,10.2-20.8
		c-0.1-2.9-1.9-6.7-4.2-8.5c-7-5.4-14.7-9.9-23.9-10.7c-1.8-0.1-3.6-0.5-6.1-0.9c4.1-6.2,3.5-11.9,0.2-17.3c-3.3-5.4-4-9.3,0.2-15.5
		c13-19.7,9.8-40.1-0.5-60.1c-0.7-1.3-1.1-2.6-1.7-3.8c9.2-1.3,17.8-2.6,26.3-3.8c3-0.4,5.5-1.9,9,0.1c15.6,8.9,32.1,13.7,49.6,6.5
		c8.9-3.7,19.8-6.4,20.7-19.2c0-0.4,0.4-0.8,0.7-1.2C350.1,249.9,349.2,246.6,342.9,242.7z"/>
</g>
</svg>
